<?xml version="1.0" encoding="UTF-8"?>
<svg id="Layer_1" data-name="Layer 1" xmlns="http://www.w3.org/2000/svg" viewBox="0 0 260 80">
  <defs>
    <style>
      .cls-1 {
        font-family: Poppins-Regular, Poppins;
        font-size: 5.22px;
      }

      .cls-1, .cls-2, .cls-3, .cls-4 {
        fill: #fff;
      }

      .cls-2 {
        font-family: Poppins-Light, Poppins;
        font-size: 9.31px;
        font-weight: 300;
        letter-spacing: -.04em;
      }

      .cls-4 {
        font-family: Poppins-Medium, Poppins;
        font-size: 15.29px;
        font-weight: 500;
      }
    </style>
  </defs>
  <g>
    <path class="cls-3" d="M25.17,17.69s-5.91,11.37-4.22,25.2c0,0,2.43-2.28,5.27-3.45,0,0-3.39-10.61-1.05-21.75Z"/>
    <path class="cls-3" d="M19.96,26.39S12.45,9.75,32.53,3.04c0,0,6.9,10.97-6.04,21.07,0,0-1.18-7.7,1.97-13.8,0,0-4.25,2.77-8.5,16.08Z"/>
    <circle class="cls-3" cx="35.37" cy="27.91" r="4.84"/>
    <path class="cls-3" d="M58.04,33.31s-17.4,6.02-28.64,14.94c-.18.14-.36.28-.53.43-2.75,2.27-5.61,5.69-5.79,5.9h0s0,0,0,0c-.41.56-.78,1.12-1.11,1.69-.42.71-.77,1.44-1.06,2.17,0,0-.02.06-.06.18-1.72,2.8-4.61,10.21,6.52,17.57-4.88-1.55-13.91-5.89-14.62-16.94-.36-5.52,2.69-10.54,7.77-14.67,1.84-1.49,3.95-2.87,6.25-4.11,8.73-4.69,20.34-7.42,31.29-7.16Z"/>
    <path class="cls-3" d="M30.44,76.96s-1.25-.19-3.09-.77h0c-11.13-7.35-8.24-14.76-6.52-17.57-.32,1.05-1.66,6.49,4.25,10.11-.11-3.67-.77-8.5-2.01-14.15,0,0,0,0,0,0h0c.18-.22,3.04-3.63,5.79-5.91,1.24,6.26,2.52,16.24,1.57,28.29Z"/>
    <path class="cls-3" d="M67.18,35.24c-2.4,20.16-34.55,21.16-36.09,20.23l-.58-5.04c20.44-.5,24.05-13.67,24.05-13.67,0,0,1.5-.48,3.39-1.62,1.24-.75,2.65-1.79,3.91-3.16-1.21-.34-2.49-.47-3.81-.45-.79.01-1.6.09-2.42.21-.7-13.07-19.85-10.88-20.5-10.8,0,0,0,0,0,0,0,0,0,0,.01,0,0,0,0,0,.01,0,18.31-3.69,26.27,1.34,29.68,5.7,1.91,2.44,2.73,5.54,2.36,8.61Z"/>
    <path class="cls-3" d="M54.56,36.75s1.5-.48,3.39-1.62c-1.6,12.57-15.24,17.57-27.43,15.29,20.44-.5,24.05-13.67,24.05-13.67Z"/>
    <path class="cls-3" d="M58.04,31.53h0c-.79.02-1.6.09-2.42.21-.7-13.07-19.85-10.88-20.5-10.8t0,0s0,0,.01,0c.95-.17,21.9-3.85,22.91,10.6Z"/>
  </g>
  <text class="cls-4" transform="translate(73.49 41.86)"><tspan x="0" y="0">PRIME THERAPY BILLING</tspan></text>
  <text class="cls-2" transform="translate(74.6 58.08)"><tspan x="0" y="0">Where Therapy Thrives, Revenue Follows.</tspan></text>
  <text class="cls-1" transform="translate(192.54 48)"><tspan x="0" y="0">SMC PRIVATE LIMITED</tspan></text>
</svg>