<?xml version="1.0" encoding="UTF-8"?>
<svg id="Layer_1" data-name="Layer 1" xmlns="http://www.w3.org/2000/svg" viewBox="0 0 115.48 36.69">
  <defs>
    <style>
      .cls-1 {
        fill: #fff;
      }
    </style>
  </defs>
  <g>
    <path class="cls-1" d="M6.19,7.28s-2.94,5.64-2.09,12.51c0,0,1.21-1.13,2.61-1.71,0,0-1.68-5.27-.52-10.79Z"/>
    <path class="cls-1" d="M3.61,11.59S-.13,3.33,9.84,0c0,0,3.42,5.44-3,10.46,0,0-.59-3.82.98-6.85,0,0-2.11,1.38-4.22,7.98Z"/>
    <circle class="cls-1" cx="11.25" cy="12.35" r="2.4"/>
    <path class="cls-1" d="M22.51,15.03s-8.63,2.99-14.22,7.41c-.09.07-.18.14-.26.21-1.36,1.13-2.79,2.82-2.87,2.93h0s0,0,0,0c-.2.28-.39.56-.55.84-.21.35-.38.71-.53,1.08,0,0-.01.03-.03.09-.85,1.39-2.29,5.07,3.24,8.72C4.85,35.54.37,33.39.01,27.9c-.18-2.74,1.34-5.23,3.86-7.28.91-.74,1.96-1.42,3.1-2.04,4.33-2.33,10.09-3.68,15.53-3.55Z"/>
    <path class="cls-1" d="M8.81,36.69s-.62-.09-1.53-.38h0c-5.52-3.65-4.09-7.33-3.24-8.72-.16.52-.82,3.22,2.11,5.02-.05-1.82-.38-4.22-1-7.02,0,0,0,0,0,0h0c.09-.11,1.51-1.8,2.87-2.93.62,3.11,1.25,8.06.78,14.04Z"/>
    <path class="cls-1" d="M27.04,15.98c-1.19,10.01-17.15,10.5-17.91,10.04l-.29-2.5c10.14-.25,11.93-6.78,11.93-6.78,0,0,.75-.24,1.68-.8.62-.37,1.32-.89,1.94-1.57-.6-.17-1.23-.24-1.89-.22-.39,0-.79.04-1.2.1-.35-6.49-9.85-5.4-10.17-5.36,0,0,0,0,0,0,0,0,0,0,0,0,0,0,0,0,0,0,9.09-1.83,13.04.66,14.73,2.83.95,1.21,1.35,2.75,1.17,4.27Z"/>
    <path class="cls-1" d="M20.78,16.73s.75-.24,1.68-.8c-.8,6.24-7.57,8.72-13.62,7.59,10.14-.25,11.93-6.78,11.93-6.78Z"/>
    <path class="cls-1" d="M22.51,14.14h0c-.39,0-.79.04-1.2.1-.35-6.49-9.85-5.4-10.17-5.36t0,0s0,0,0,0c.47-.09,10.87-1.91,11.37,5.26Z"/>
  </g>
  <g>
    <path class="cls-1" d="M34.24,16.33c-.13.24-.33.43-.61.58-.28.15-.64.22-1.07.22h-.96v2.14h-.86v-5.27h1.82c.4,0,.75.07,1.03.21s.49.33.63.56.21.5.21.8c0,.27-.06.52-.19.76ZM33.3,16.2c.16-.15.24-.36.24-.63,0-.58-.33-.87-.98-.87h-.96v1.72h.96c.33,0,.57-.07.74-.22Z"/>
    <path class="cls-1" d="M38,19.27l-1.21-2.11h-.66v2.11h-.87v-5.27h1.82c.4,0,.75.07,1.03.21.28.14.49.33.63.57.14.24.21.5.21.8,0,.34-.1.66-.3.94-.2.28-.51.47-.92.57l1.31,2.19h-1.03ZM36.12,16.47h.96c.32,0,.57-.08.73-.24.16-.16.25-.38.25-.65s-.08-.49-.24-.64c-.16-.15-.41-.23-.74-.23h-.96v1.77Z"/>
    <path class="cls-1" d="M40.92,14v5.27h-.87v-5.27h.87Z"/>
    <path class="cls-1" d="M47.61,14v5.27h-.87v-3.61l-1.61,3.61h-.6l-1.62-3.61v3.61h-.87v-5.27h.93l1.85,4.14,1.84-4.14h.93Z"/>
    <path class="cls-1" d="M49.61,14.69v1.55h1.82v.71h-1.82v1.62h2.05v.71h-2.91v-5.28h2.91v.71h-2.05Z"/>
    <path class="cls-1" d="M58.11,14v.71h-1.4v4.57h-.87v-4.57h-1.41v-.71h3.68Z"/>
    <path class="cls-1" d="M63.19,14v5.27h-.86v-2.31h-2.48v2.31h-.87v-5.27h.87v2.26h2.48v-2.26h.86Z"/>
    <path class="cls-1" d="M65.19,14.69v1.55h1.82v.71h-1.82v1.62h2.05v.71h-2.91v-5.28h2.91v.71h-2.05Z"/>
    <path class="cls-1" d="M71.04,19.27l-1.21-2.11h-.66v2.11h-.87v-5.27h1.82c.4,0,.75.07,1.03.21.28.14.49.33.63.57.14.24.21.5.21.8,0,.34-.1.66-.3.94-.2.28-.51.47-.92.57l1.31,2.19h-1.03ZM69.17,16.47h.96c.32,0,.57-.08.73-.24.16-.16.25-.38.25-.65s-.08-.49-.24-.64c-.16-.15-.41-.23-.74-.23h-.96v1.77Z"/>
    <path class="cls-1" d="M76.28,18.19h-2.21l-.38,1.08h-.9l1.89-5.28h1l1.89,5.28h-.91l-.38-1.08ZM76.04,17.49l-.86-2.45-.87,2.45h1.72Z"/>
    <path class="cls-1" d="M81.89,16.33c-.13.24-.33.43-.61.58-.28.15-.63.22-1.07.22h-.96v2.14h-.87v-5.27h1.82c.4,0,.75.07,1.03.21.28.14.49.33.63.56.14.24.21.5.21.8,0,.27-.06.52-.19.76ZM80.94,16.2c.16-.15.24-.36.24-.63,0-.58-.33-.87-.98-.87h-.96v1.72h.96c.33,0,.57-.07.74-.22Z"/>
    <path class="cls-1" d="M86.81,14l-1.75,3.36v1.91h-.86v-1.91l-1.75-3.36h.96l1.22,2.59,1.22-2.59h.96Z"/>
    <path class="cls-1" d="M93.01,17.01c.2.25.3.53.3.84,0,.27-.07.51-.21.72-.14.22-.34.38-.6.51-.26.12-.57.19-.92.19h-2.11v-5.27h2.01c.36,0,.67.06.93.18.26.12.45.28.58.49.13.2.2.43.2.69,0,.3-.08.56-.24.76-.16.2-.38.35-.65.45.28.05.52.2.72.45ZM90.33,16.21h1.07c.28,0,.5-.06.66-.19s.24-.31.24-.56-.08-.42-.24-.56c-.16-.13-.38-.2-.66-.2h-1.07v1.51ZM92.19,18.35c.17-.14.25-.34.25-.59s-.09-.46-.27-.61c-.18-.15-.41-.23-.71-.23h-1.14v1.65h1.17c.29,0,.52-.07.69-.21Z"/>
    <path class="cls-1" d="M95.11,14v5.27h-.87v-5.27h.87Z"/>
    <path class="cls-1" d="M97.12,18.57h1.78v.7h-2.65v-5.27h.87v4.58Z"/>
    <path class="cls-1" d="M100.49,18.57h1.78v.7h-2.65v-5.27h.87v4.58Z"/>
    <path class="cls-1" d="M103.86,14v5.27h-.87v-5.27h.87Z"/>
    <path class="cls-1" d="M109.33,19.27h-.87l-2.6-3.94v3.94h-.87v-5.28h.87l2.6,3.93v-3.93h.87v5.28Z"/>
    <path class="cls-1" d="M114.28,15.51c-.14-.26-.33-.46-.57-.6-.24-.13-.52-.2-.84-.2-.35,0-.66.08-.93.23-.27.16-.49.38-.64.67-.15.29-.23.62-.23,1s.08.71.23,1.01c.15.29.37.52.64.67s.58.24.93.24c.47,0,.85-.13,1.15-.4.29-.26.47-.62.54-1.07h-1.98v-.69h2.91v.68c-.06.41-.2.79-.44,1.13-.24.34-.54.62-.92.82-.38.2-.8.31-1.26.31-.5,0-.95-.11-1.36-.35-.41-.23-.73-.55-.97-.96-.24-.41-.36-.87-.36-1.39s.12-.98.36-1.39c.24-.41.57-.73.98-.96.41-.23.86-.35,1.35-.35.56,0,1.06.14,1.5.41.44.28.75.67.95,1.17h-1.04Z"/>
  </g>
  <g>
    <path class="cls-1" d="M35.01,24.1l-.92,3.23h-.36l-.81-2.75-.83,2.75h-.35s-.9-3.23-.9-3.23h.35l.74,2.83.83-2.83h.36l.8,2.83.74-2.83h.35Z"/>
    <path class="cls-1" d="M37.03,24.88c.15.08.27.2.36.37.09.17.13.37.13.6v1.48h-.32v-1.44c0-.27-.07-.48-.21-.63-.14-.14-.32-.22-.56-.22s-.44.08-.58.23-.22.38-.22.68v1.38h-.32v-3.42h.32v1.33c.08-.15.2-.27.35-.35s.33-.12.52-.12.36.04.52.12Z"/>
    <path class="cls-1" d="M40.32,26.19h-2.09c0,.19.06.35.14.49.08.13.19.24.33.31.13.07.28.1.44.1.21,0,.39-.05.53-.15.14-.1.24-.24.28-.41h.34c-.06.25-.19.45-.39.6-.2.16-.46.23-.76.23-.24,0-.45-.05-.64-.16-.19-.11-.33-.26-.44-.45-.11-.2-.16-.42-.16-.69s.05-.49.16-.69.25-.35.44-.45.4-.16.64-.16.45.05.63.16c.18.1.32.25.42.42s.15.37.15.59c0,.11,0,.2,0,.25ZM39.89,25.44c-.08-.13-.19-.23-.32-.3-.13-.07-.28-.1-.44-.1-.24,0-.44.08-.61.23-.17.15-.26.37-.28.65h1.77c0-.19-.03-.35-.11-.48Z"/>
    <path class="cls-1" d="M41.38,24.88c.15-.09.33-.13.54-.13v.34h-.09c-.23,0-.42.06-.56.19-.14.13-.21.34-.21.63v1.41h-.32v-2.52h.32v.45c.07-.16.18-.28.33-.37Z"/>
    <path class="cls-1" d="M44.49,26.19h-2.09c0,.19.06.35.14.49.08.13.19.24.33.31.13.07.28.1.44.1.21,0,.39-.05.53-.15.14-.1.24-.24.28-.41h.34c-.06.25-.19.45-.39.6-.2.16-.46.23-.76.23-.24,0-.45-.05-.64-.16-.19-.11-.33-.26-.44-.45-.11-.2-.16-.42-.16-.69s.05-.49.16-.69.25-.35.44-.45.4-.16.64-.16.45.05.63.16c.18.1.32.25.42.42s.15.37.15.59c0,.11,0,.2,0,.25ZM44.05,25.44c-.08-.13-.19-.23-.32-.3-.13-.07-.28-.1-.44-.1-.24,0-.44.08-.61.23-.17.15-.26.37-.28.65h1.77c0-.19-.03-.35-.11-.48Z"/>
    <path class="cls-1" d="M47.86,24.1v.27h-.9v2.96h-.32v-2.96h-.9v-.27h2.12Z"/>
    <path class="cls-1" d="M49.9,24.88c.15.08.27.2.36.37.09.17.13.37.13.6v1.48h-.32v-1.44c0-.27-.07-.48-.21-.63-.14-.14-.32-.22-.56-.22s-.44.08-.58.23-.22.38-.22.68v1.38h-.32v-3.42h.32v1.33c.08-.15.2-.27.35-.35s.33-.12.52-.12.36.04.52.12Z"/>
    <path class="cls-1" d="M53.19,26.19h-2.09c0,.19.06.35.14.49.08.13.19.24.33.31.13.07.28.1.44.1.21,0,.39-.05.53-.15.14-.1.24-.24.28-.41h.34c-.06.25-.19.45-.39.6-.2.16-.46.23-.76.23-.24,0-.45-.05-.64-.16-.19-.11-.33-.26-.44-.45-.11-.2-.16-.42-.16-.69s.05-.49.16-.69.25-.35.44-.45.4-.16.64-.16.45.05.63.16c.18.1.32.25.42.42s.15.37.15.59c0,.11,0,.2,0,.25ZM52.76,25.44c-.08-.13-.19-.23-.32-.3-.13-.07-.28-.1-.44-.1-.24,0-.44.08-.61.23-.17.15-.26.37-.28.65h1.77c0-.19-.03-.35-.11-.48Z"/>
    <path class="cls-1" d="M54.25,24.88c.15-.09.33-.13.54-.13v.34h-.09c-.23,0-.42.06-.56.19-.14.13-.21.34-.21.63v1.41h-.32v-2.52h.32v.45c.07-.16.18-.28.33-.37Z"/>
    <path class="cls-1" d="M55.09,25.38c.1-.2.25-.35.43-.45.18-.11.39-.16.62-.16s.45.06.62.17c.17.11.3.25.38.42v-.55h.32v2.52h-.32v-.56c-.08.17-.21.31-.38.43s-.38.17-.62.17-.43-.05-.62-.16c-.18-.11-.33-.26-.43-.46-.1-.2-.15-.42-.15-.68s.05-.49.15-.68ZM57.02,25.53c-.08-.15-.2-.27-.34-.36-.14-.08-.3-.12-.47-.12s-.34.04-.48.12-.25.2-.33.35c-.08.15-.12.33-.12.54s.04.39.12.54c.08.16.19.27.33.36s.3.12.48.12.33-.04.47-.12c.14-.08.26-.2.34-.36.08-.15.12-.33.12-.54s-.04-.38-.12-.54Z"/>
    <path class="cls-1" d="M58.71,24.93c.17-.11.38-.17.62-.17.23,0,.43.05.62.16.18.11.33.26.43.45.1.2.16.42.16.68s-.05.49-.16.68c-.1.2-.25.35-.43.46-.18.11-.39.16-.62.16s-.44-.06-.62-.17c-.17-.11-.3-.25-.38-.42v1.75h-.32v-3.71h.32v.55c.08-.17.21-.31.38-.42ZM60.09,25.52c-.08-.15-.19-.27-.33-.35s-.3-.12-.48-.12-.33.04-.47.12-.26.2-.34.36c-.08.15-.12.33-.12.54s.04.38.12.54c.08.15.2.27.34.36.14.08.3.12.47.12s.34-.04.48-.12.25-.2.33-.36c.08-.16.12-.34.12-.54s-.04-.39-.12-.54Z"/>
    <path class="cls-1" d="M63.02,24.8l-1.5,3.71h-.34l.49-1.2-1.03-2.51h.36l.86,2.15.83-2.15h.33Z"/>
    <path class="cls-1" d="M66.24,24.1v.27h-.9v2.96h-.32v-2.96h-.9v-.27h2.12Z"/>
    <path class="cls-1" d="M68.28,24.88c.15.08.27.2.36.37.09.17.13.37.13.6v1.48h-.32v-1.44c0-.27-.07-.48-.21-.63-.14-.14-.32-.22-.56-.22s-.44.08-.58.23-.22.38-.22.68v1.38h-.32v-3.42h.32v1.33c.08-.15.2-.27.35-.35s.33-.12.52-.12.36.04.52.12Z"/>
    <path class="cls-1" d="M69.94,24.88c.15-.09.33-.13.54-.13v.34h-.09c-.23,0-.42.06-.56.19-.14.13-.21.34-.21.63v1.41h-.32v-2.52h.32v.45c.07-.16.18-.28.33-.37Z"/>
    <path class="cls-1" d="M70.77,24.26s-.07-.1-.07-.17.02-.12.07-.17c.05-.04.1-.07.17-.07s.12.02.17.07c.05.04.07.1.07.17s-.02.12-.07.17-.1.07-.17.07-.12-.02-.17-.07ZM71.1,24.8v2.52h-.32v-2.52h.32Z"/>
    <path class="cls-1" d="M72.54,27.01l.85-2.21h.34l-1.01,2.52h-.36l-1.01-2.52h.35l.85,2.21Z"/>
    <path class="cls-1" d="M76.25,26.19h-2.09c0,.19.06.35.14.49.08.13.19.24.33.31.13.07.28.1.44.1.21,0,.39-.05.53-.15.14-.1.24-.24.28-.41h.34c-.06.25-.19.45-.39.6-.2.16-.46.23-.76.23-.24,0-.45-.05-.64-.16-.19-.11-.33-.26-.44-.45-.11-.2-.16-.42-.16-.69s.05-.49.16-.69.25-.35.44-.45.4-.16.64-.16.45.05.63.16c.18.1.32.25.42.42s.15.37.15.59c0,.11,0,.2,0,.25ZM75.82,25.44c-.08-.13-.19-.23-.32-.3-.13-.07-.28-.1-.44-.1-.24,0-.44.08-.61.23-.17.15-.26.37-.28.65h1.77c0-.19-.03-.35-.11-.48Z"/>
    <path class="cls-1" d="M76.83,27.16c-.18-.13-.29-.32-.31-.55h.33c.01.14.08.26.2.34.12.09.28.13.48.13.18,0,.31-.04.41-.12.1-.08.15-.19.15-.31,0-.09-.03-.16-.08-.21-.06-.05-.13-.1-.21-.13-.08-.03-.2-.07-.34-.1-.19-.05-.34-.1-.46-.15-.12-.05-.22-.12-.3-.22-.08-.1-.12-.23-.12-.39,0-.12.04-.24.11-.34.07-.1.18-.19.31-.25.13-.06.29-.09.46-.09.27,0,.49.07.66.21.17.14.26.33.27.57h-.32c0-.15-.07-.27-.17-.36s-.25-.14-.44-.14c-.16,0-.3.04-.4.12-.1.08-.15.17-.15.29,0,.1.03.18.09.24.06.06.13.11.22.15.09.04.21.08.36.12.18.05.33.1.43.14.11.05.2.11.28.2.08.09.12.21.12.36,0,.14-.04.26-.11.36-.07.11-.18.19-.31.25-.13.06-.29.09-.46.09-.29,0-.53-.07-.71-.2Z"/>
    <path class="cls-1" d="M79.13,26.79l-.48,1.21h-.22l.34-1.21h.36Z"/>
    <path class="cls-1" d="M82.24,27.32l-.8-1.35h-.6v1.35h-.32v-3.23h.97c.36,0,.63.09.82.26.19.17.28.4.28.68,0,.23-.07.43-.2.6-.13.17-.33.27-.59.32l.83,1.37h-.39ZM80.84,25.71h.65c.25,0,.44-.06.57-.18.13-.12.19-.29.19-.49s-.06-.38-.18-.49c-.12-.12-.32-.17-.58-.17h-.65v1.34Z"/>
    <path class="cls-1" d="M85.31,26.19h-2.09c0,.19.06.35.14.49.08.13.19.24.33.31.13.07.28.1.44.1.21,0,.39-.05.53-.15.14-.1.24-.24.28-.41h.34c-.06.25-.19.45-.39.6-.2.16-.46.23-.76.23-.24,0-.45-.05-.64-.16-.19-.11-.33-.26-.44-.45-.11-.2-.16-.42-.16-.69s.05-.49.16-.69.25-.35.44-.45.4-.16.64-.16.45.05.63.16c.18.1.32.25.42.42s.15.37.15.59c0,.11,0,.2,0,.25ZM84.88,25.44c-.08-.13-.19-.23-.32-.3-.13-.07-.28-.1-.44-.1-.24,0-.44.08-.61.23-.17.15-.26.37-.28.65h1.77c0-.19-.03-.35-.11-.48Z"/>
    <path class="cls-1" d="M86.62,27.01l.85-2.21h.34l-1.01,2.52h-.36l-1.01-2.52h.35l.85,2.21Z"/>
    <path class="cls-1" d="M90.33,26.19h-2.09c0,.19.06.35.14.49.08.13.19.24.33.31.13.07.28.1.44.1.21,0,.39-.05.53-.15.14-.1.24-.24.28-.41h.34c-.06.25-.19.45-.39.6-.2.16-.46.23-.76.23-.24,0-.45-.05-.64-.16-.19-.11-.33-.26-.44-.45-.11-.2-.16-.42-.16-.69s.05-.49.16-.69.25-.35.44-.45.4-.16.64-.16.45.05.63.16c.18.1.32.25.42.42s.15.37.15.59c0,.11,0,.2,0,.25ZM89.9,25.44c-.08-.13-.19-.23-.32-.3-.13-.07-.28-.1-.44-.1-.24,0-.44.08-.61.23-.17.15-.26.37-.28.65h1.77c0-.19-.03-.35-.11-.48Z"/>
    <path class="cls-1" d="M92.67,25.04c.19.19.29.46.29.81v1.48h-.32v-1.44c0-.27-.07-.48-.21-.63-.14-.14-.32-.22-.56-.22s-.44.08-.58.23-.22.38-.22.68v1.38h-.32v-2.52h.32v.43c.08-.15.2-.27.35-.35.15-.08.32-.12.51-.12.3,0,.55.09.74.28Z"/>
    <path class="cls-1" d="M95.66,24.8v2.52h-.32v-.44c-.07.16-.19.28-.34.36-.15.08-.33.12-.52.12-.3,0-.55-.09-.74-.28-.19-.19-.29-.46-.29-.81v-1.47h.32v1.44c0,.27.07.48.21.63.14.14.32.22.56.22s.44-.08.58-.23.22-.38.22-.68v-1.37h.32Z"/>
    <path class="cls-1" d="M98.49,26.19h-2.09c0,.19.06.35.14.49.08.13.19.24.33.31.13.07.28.1.44.1.21,0,.39-.05.53-.15.14-.1.24-.24.28-.41h.34c-.06.25-.19.45-.39.6-.2.16-.46.23-.76.23-.24,0-.45-.05-.64-.16-.19-.11-.33-.26-.44-.45-.11-.2-.16-.42-.16-.69s.05-.49.16-.69.25-.35.44-.45.4-.16.64-.16.45.05.63.16c.18.1.32.25.42.42s.15.37.15.59c0,.11,0,.2,0,.25ZM98.05,25.44c-.08-.13-.19-.23-.32-.3-.13-.07-.28-.1-.44-.1-.24,0-.44.08-.61.23-.17.15-.26.37-.28.65h1.77c0-.19-.03-.35-.11-.48Z"/>
    <path class="cls-1" d="M101.72,24.1v.27h-1.42v1.21h1.2v.27h-1.2v1.49h-.32v-3.23h1.75Z"/>
    <path class="cls-1" d="M102.52,27.2c-.19-.11-.34-.26-.45-.45-.11-.2-.16-.42-.16-.69s.06-.49.17-.69c.11-.2.26-.35.45-.45.19-.11.4-.16.64-.16s.45.05.64.16c.19.11.34.26.45.45.11.2.16.42.16.69s-.05.49-.17.68c-.11.2-.26.35-.46.45-.19.11-.41.16-.65.16s-.45-.05-.64-.16ZM103.63,26.97c.14-.08.26-.19.34-.34.09-.15.13-.34.13-.56s-.04-.41-.13-.56c-.09-.15-.2-.27-.34-.34-.14-.08-.3-.11-.46-.11s-.32.04-.46.11c-.14.08-.25.19-.34.34s-.13.34-.13.56.04.41.13.56c.08.15.2.27.34.34.14.07.29.11.46.11s.32-.04.46-.11Z"/>
    <path class="cls-1" d="M105.16,23.91v3.42h-.32v-3.42h.32Z"/>
    <path class="cls-1" d="M106.03,23.91v3.42h-.32v-3.42h.32Z"/>
    <path class="cls-1" d="M107.04,27.2c-.19-.11-.34-.26-.45-.45-.11-.2-.16-.42-.16-.69s.06-.49.17-.69c.11-.2.26-.35.45-.45.19-.11.4-.16.64-.16s.45.05.64.16c.19.11.34.26.45.45.11.2.16.42.16.69s-.05.49-.17.68c-.11.2-.26.35-.46.45-.19.11-.41.16-.65.16s-.45-.05-.64-.16ZM108.14,26.97c.14-.08.26-.19.34-.34.09-.15.13-.34.13-.56s-.04-.41-.13-.56c-.09-.15-.2-.27-.34-.34-.14-.08-.3-.11-.46-.11s-.32.04-.46.11c-.14.08-.25.19-.34.34s-.13.34-.13.56.04.41.13.56c.08.15.2.27.34.34.14.07.29.11.46.11s.32-.04.46-.11Z"/>
    <path class="cls-1" d="M112.67,24.8l-.79,2.52h-.32l-.7-2.12-.7,2.12h-.33l-.79-2.52h.33l.63,2.19.71-2.19h.32l.7,2.2.62-2.2h.32Z"/>
    <path class="cls-1" d="M113.08,27.16c-.18-.13-.29-.32-.31-.55h.33c.01.14.08.26.2.34.12.09.28.13.48.13.18,0,.31-.04.41-.12.1-.08.15-.19.15-.31,0-.09-.03-.16-.08-.21-.06-.05-.13-.1-.21-.13-.08-.03-.2-.07-.34-.1-.19-.05-.34-.1-.46-.15-.12-.05-.22-.12-.3-.22-.08-.1-.12-.23-.12-.39,0-.12.04-.24.11-.34.07-.1.18-.19.31-.25.13-.06.29-.09.46-.09.27,0,.49.07.66.21.17.14.26.33.27.57h-.32c0-.15-.07-.27-.17-.36s-.25-.14-.44-.14c-.16,0-.3.04-.4.12-.1.08-.15.17-.15.29,0,.1.03.18.09.24.06.06.13.11.22.15.09.04.21.08.36.12.18.05.33.1.43.14.11.05.2.11.28.2.08.09.12.21.12.36,0,.14-.04.26-.11.36-.07.11-.18.19-.31.25-.13.06-.29.09-.46.09-.29,0-.53-.07-.71-.2Z"/>
    <path class="cls-1" d="M114.98,27.28s-.07-.1-.07-.17.02-.12.07-.17.1-.07.17-.07.12.02.16.07c.04.04.07.1.07.17s-.02.12-.07.17c-.04.05-.1.07-.16.07s-.12-.02-.17-.07Z"/>
  </g>
</svg>