<?xml version="1.0" encoding="UTF-8"?>
<svg id="Layer_1" data-name="Layer 1" xmlns="http://www.w3.org/2000/svg" viewBox="0 0 280.33 84.67">
  <defs>
    <style>
      .cls-1 {
        fill: #4e7696;
      }

      .cls-2 {
        fill: #395372;
      }
    </style>
  </defs>
  <g>
    <path class="cls-2" d="M14.29,16.79s-6.77,13.02-4.83,28.86c0,0,2.79-2.61,6.03-3.95,0,0-3.88-12.16-1.2-24.91Z"/>
    <path class="cls-1" d="M8.32,26.74S-.29,7.69,22.71,0c0,0,7.9,12.56-6.91,24.13,0,0-1.36-8.82,2.26-15.81,0,0-4.87,3.18-9.74,18.42Z"/>
    <circle class="cls-2" cx="25.96" cy="28.49" r="5.55"/>
    <path class="cls-2" d="M51.93,34.67s-19.92,6.9-32.81,17.11c-.2.16-.41.32-.61.49-3.14,2.6-6.43,6.51-6.63,6.76h0s0,.01,0,.01c-.47.64-.89,1.28-1.28,1.94-.48.82-.89,1.65-1.22,2.49,0,0-.03.07-.07.2-1.97,3.21-5.28,11.7,7.47,20.12-5.59-1.77-15.93-6.74-16.75-19.41-.41-6.32,3.08-12.08,8.9-16.8,2.11-1.71,4.52-3.29,7.16-4.71,10-5.37,23.29-8.5,35.83-8.2Z"/>
    <path class="cls-1" d="M20.32,84.67s-1.43-.21-3.54-.88h0c-12.74-8.42-9.44-16.91-7.47-20.12-.37,1.2-1.9,7.43,4.87,11.58-.13-4.21-.88-9.73-2.3-16.21,0,0,0,0,0,0h0c.2-.25,3.49-4.16,6.63-6.76,1.42,7.17,2.89,18.6,1.8,32.4Z"/>
    <path class="cls-2" d="M62.4,36.88c-2.74,23.09-39.57,24.23-41.33,23.17l-.67-5.78c23.4-.58,27.54-15.65,27.54-15.65,0,0,1.72-.55,3.88-1.85,1.42-.86,3.04-2.05,4.48-3.62-1.39-.39-2.85-.54-4.37-.51-.91.02-1.83.1-2.78.24-.81-14.97-22.73-12.46-23.48-12.37,0,0,0,0,0,0,0,0,0,0,.01,0,0,0,0,0,.02,0,20.96-4.22,30.09,1.53,34,6.52,2.18,2.79,3.12,6.34,2.7,9.86Z"/>
    <path class="cls-1" d="M47.94,38.61s1.72-.55,3.88-1.85c-1.83,14.39-17.46,20.12-31.42,17.51,23.4-.58,27.54-15.65,27.54-15.65Z"/>
    <path class="cls-1" d="M51.93,32.63h0c-.91.02-1.83.1-2.78.24-.81-14.97-22.73-12.46-23.48-12.37t0,0s0,0,.02,0c1.09-.2,25.09-4.41,26.24,12.14Z"/>
  </g>
  <g>
    <path class="cls-2" d="M72.55,45.11c-.36,0-.63-.1-.82-.3-.19-.2-.28-.48-.28-.84v-10.06c0-.37.1-.65.29-.84.2-.19.47-.29.83-.29h4.16c1.34,0,2.37.33,3.09,1,.73.67,1.09,1.6,1.09,2.8s-.36,2.13-1.09,2.81c-.73.67-1.76,1.01-3.09,1.01h-3.08v3.56c0,.36-.09.64-.28.84-.18.2-.46.3-.83.3ZM73.66,38.66h2.73c.78,0,1.38-.18,1.78-.53.4-.35.6-.87.6-1.55s-.2-1.19-.6-1.54c-.4-.35-1-.52-1.78-.52h-2.73v4.13Z"/>
    <path class="cls-2" d="M83.82,45.11c-.36,0-.63-.1-.82-.3-.19-.2-.28-.48-.28-.84v-10.06c0-.37.1-.65.29-.84.2-.19.47-.29.83-.29h4.16c1.34,0,2.37.32,3.09.96.73.64,1.09,1.54,1.09,2.69,0,.75-.16,1.39-.49,1.93-.33.54-.8.96-1.43,1.24-.62.29-1.38.43-2.26.43l.16-.26h.57c.47,0,.88.12,1.24.35.35.23.66.59.92,1.09l1.3,2.4c.14.24.2.48.19.71-.01.23-.1.42-.26.56-.16.14-.4.22-.71.22s-.56-.07-.76-.2c-.2-.13-.37-.34-.52-.61l-1.74-3.21c-.21-.39-.45-.65-.73-.79-.28-.13-.64-.2-1.08-.2h-1.64v3.87c0,.36-.09.64-.28.84-.18.2-.46.3-.83.3ZM84.92,38.46h2.7c.79,0,1.4-.16,1.81-.49.41-.33.61-.82.61-1.48s-.2-1.13-.61-1.46c-.41-.33-1.01-.49-1.81-.49h-2.7v3.92Z"/>
    <path class="cls-2" d="M95.67,45.11c-.36,0-.63-.1-.82-.3-.19-.2-.28-.48-.28-.84v-10.18c0-.37.09-.65.28-.85.19-.2.46-.29.82-.29s.63.1.82.29c.19.2.29.48.29.85v10.18c0,.36-.09.64-.28.84-.18.2-.46.3-.83.3Z"/>
    <path class="cls-2" d="M100.47,45.11c-.32,0-.57-.09-.74-.28-.17-.18-.26-.44-.26-.76v-10.38c0-.33.09-.59.28-.77.18-.18.44-.27.76-.27.29,0,.52.05.68.16.17.11.32.3.46.56l4.27,7.9h-.55l4.27-7.9c.14-.26.29-.45.45-.56.16-.11.39-.16.67-.16.32,0,.57.09.74.27.17.18.26.43.26.77v10.38c0,.32-.08.58-.25.76s-.42.28-.75.28-.57-.09-.74-.28-.26-.44-.26-.76v-8h.38l-3.63,6.62c-.12.2-.24.34-.36.43-.13.09-.3.14-.52.14s-.4-.05-.54-.15c-.14-.1-.26-.24-.36-.42l-3.66-6.63h.41v8.02c0,.32-.08.58-.25.76s-.42.28-.75.28Z"/>
    <path class="cls-2" d="M115.61,44.97c-.38,0-.67-.1-.87-.3-.2-.2-.3-.49-.3-.87v-9.83c0-.38.1-.67.3-.87s.49-.3.87-.3h6.17c.29,0,.51.08.66.22s.23.36.23.64-.08.51-.23.66-.38.23-.66.23h-5.22v3.35h4.84c.3,0,.52.08.67.22.15.15.22.37.22.66s-.07.51-.22.66-.37.22-.67.22h-4.84v3.54h5.22c.29,0,.51.08.66.22s.23.37.23.66-.08.51-.23.66-.38.22-.66.22h-6.17Z"/>
    <path class="cls-2" d="M133.47,45.11c-.36,0-.63-.1-.82-.3-.19-.2-.28-.48-.28-.84v-9.33h-3.37c-.3,0-.53-.08-.7-.25-.17-.17-.25-.39-.25-.68s.08-.53.25-.68.4-.23.7-.23h8.95c.3,0,.53.08.7.23s.25.38.25.68-.08.52-.25.68c-.17.17-.4.25-.7.25h-3.37v9.33c0,.36-.09.64-.28.84-.18.2-.46.3-.83.3Z"/>
    <path class="cls-2" d="M141.26,45.11c-.36,0-.63-.1-.82-.3-.19-.2-.28-.48-.28-.84v-10.18c0-.37.09-.65.28-.85.19-.2.46-.29.82-.29s.63.1.82.29c.19.2.29.48.29.85v4.08h6.27v-4.08c0-.37.1-.65.29-.85.19-.2.46-.29.82-.29s.63.1.82.29c.19.2.29.48.29.85v10.18c0,.36-.1.64-.29.84-.19.2-.46.3-.82.3s-.63-.1-.82-.3c-.19-.2-.29-.48-.29-.84v-4.25h-6.27v4.25c0,.36-.09.64-.28.84-.18.2-.46.3-.83.3Z"/>
    <path class="cls-2" d="M154.69,44.97c-.38,0-.67-.1-.87-.3-.2-.2-.3-.49-.3-.87v-9.83c0-.38.1-.67.3-.87s.49-.3.87-.3h6.17c.29,0,.51.08.66.22s.23.36.23.64-.08.51-.23.66-.38.23-.66.23h-5.22v3.35h4.84c.3,0,.52.08.67.22.15.15.22.37.22.66s-.07.51-.22.66-.37.22-.67.22h-4.84v3.54h5.22c.29,0,.51.08.66.22s.23.37.23.66-.08.51-.23.66-.38.22-.66.22h-6.17Z"/>
    <path class="cls-2" d="M164.93,45.11c-.36,0-.63-.1-.82-.3-.19-.2-.28-.48-.28-.84v-10.06c0-.37.1-.65.29-.84.2-.19.47-.29.83-.29h4.16c1.34,0,2.37.32,3.09.96.73.64,1.09,1.54,1.09,2.69,0,.75-.16,1.39-.49,1.93-.33.54-.8.96-1.43,1.24-.62.29-1.38.43-2.26.43l.16-.26h.57c.47,0,.88.12,1.24.35.35.23.66.59.92,1.09l1.3,2.4c.14.24.2.48.19.71-.01.23-.1.42-.26.56-.16.14-.4.22-.71.22s-.56-.07-.76-.2c-.2-.13-.37-.34-.52-.61l-1.74-3.21c-.21-.39-.45-.65-.73-.79-.28-.13-.64-.2-1.08-.2h-1.64v3.87c0,.36-.09.64-.28.84-.18.2-.46.3-.83.3ZM166.04,38.46h2.7c.79,0,1.4-.16,1.81-.49.41-.33.61-.82.61-1.48s-.2-1.13-.61-1.46c-.41-.33-1.01-.49-1.81-.49h-2.7v3.92Z"/>
    <path class="cls-2" d="M175.58,45.11c-.28,0-.5-.06-.66-.19s-.27-.3-.3-.51c-.03-.21,0-.45.12-.72l4.56-10.11c.15-.33.33-.57.54-.72.21-.14.46-.22.73-.22s.5.07.72.22c.21.14.39.38.54.72l4.58,10.11c.13.27.17.51.14.73-.03.22-.13.39-.29.51-.16.12-.37.18-.64.18-.32,0-.57-.08-.75-.23-.18-.16-.34-.39-.47-.72l-1.12-2.61.93.6h-7.29l.93-.6-1.11,2.61c-.15.33-.31.58-.47.73-.16.15-.39.23-.69.23ZM180.53,35.19l-2.42,5.75-.45-.55h5.77l-.43.55-2.44-5.75h-.03Z"/>
    <path class="cls-2" d="M189.41,45.11c-.36,0-.63-.1-.82-.3-.19-.2-.28-.48-.28-.84v-10.06c0-.37.1-.65.29-.84.2-.19.47-.29.83-.29h4.16c1.34,0,2.37.33,3.09,1,.73.67,1.09,1.6,1.09,2.8s-.36,2.13-1.09,2.81c-.73.67-1.76,1.01-3.09,1.01h-3.08v3.56c0,.36-.09.64-.28.84-.18.2-.46.3-.83.3ZM190.52,38.66h2.73c.78,0,1.38-.18,1.78-.53.4-.35.6-.87.6-1.55s-.2-1.19-.6-1.54c-.4-.35-1-.52-1.78-.52h-2.73v4.13Z"/>
    <path class="cls-2" d="M203.53,45.11c-.36,0-.63-.1-.82-.3-.19-.2-.28-.49-.28-.86v-5.25l.47,1.33-4.16-5.86c-.15-.21-.22-.43-.2-.66.02-.24.11-.44.28-.6.17-.17.41-.25.73-.25.23,0,.44.06.63.17.19.12.37.29.54.54l3.09,4.39h-.48l3.11-4.39c.19-.25.36-.43.54-.54.17-.11.39-.16.64-.16.3,0,.53.08.7.23.17.16.25.35.26.58,0,.23-.08.47-.25.73l-4.13,5.84.45-1.33v5.25c0,.77-.37,1.16-1.11,1.16Z"/>
    <path class="cls-2" d="M216.06,44.97c-.38,0-.67-.1-.87-.3s-.3-.49-.3-.87v-9.83c0-.38.1-.67.3-.87.2-.2.49-.3.87-.3h4.15c.85,0,1.58.13,2.18.38s1.06.62,1.37,1.09c.32.47.48,1.04.48,1.69,0,.74-.21,1.36-.64,1.87-.43.51-1.01.85-1.74,1.02v-.26c.85.13,1.52.45,1.99.97.47.52.71,1.19.71,2.02,0,1.08-.37,1.92-1.1,2.51-.73.59-1.75.89-3.05.89h-4.34ZM217,37.95h2.82c.76,0,1.33-.15,1.7-.44.37-.29.56-.73.56-1.3s-.19-1.01-.56-1.3c-.37-.29-.94-.44-1.7-.44h-2.82v3.49ZM217,43.29h3.11c.78,0,1.36-.15,1.73-.46.37-.3.55-.76.55-1.37s-.18-1.08-.55-1.38-.94-.45-1.73-.45h-3.11v3.66Z"/>
    <path class="cls-2" d="M227.87,45.11c-.36,0-.63-.1-.82-.3-.19-.2-.29-.48-.29-.84v-10.18c0-.37.1-.65.29-.85.19-.2.46-.29.82-.29s.63.1.82.29c.19.2.28.48.28.85v10.18c0,.36-.09.64-.28.84-.18.2-.46.3-.83.3Z"/>
    <path class="cls-2" d="M232.76,44.97c-.36,0-.63-.1-.83-.3-.2-.2-.29-.48-.29-.84v-9.97c0-.37.1-.65.29-.84.19-.19.46-.28.82-.28s.63.09.82.28c.19.19.28.47.28.84v9.23h5.01c.31,0,.55.08.72.24.17.16.25.39.25.69s-.08.53-.25.7c-.17.17-.41.25-.72.25h-6.1Z"/>
    <path class="cls-2" d="M242.47,44.97c-.36,0-.63-.1-.83-.3-.2-.2-.29-.48-.29-.84v-9.97c0-.37.1-.65.29-.84.19-.19.46-.28.82-.28s.63.09.82.28c.19.19.28.47.28.84v9.23h5.01c.31,0,.55.08.72.24.17.16.25.39.25.69s-.08.53-.25.7c-.17.17-.41.25-.72.25h-6.1Z"/>
    <path class="cls-2" d="M252.16,45.11c-.36,0-.63-.1-.82-.3-.19-.2-.29-.48-.29-.84v-10.18c0-.37.1-.65.29-.85.19-.2.46-.29.82-.29s.63.1.82.29c.19.2.28.48.28.85v10.18c0,.36-.09.64-.28.84-.18.2-.46.3-.83.3Z"/>
    <path class="cls-2" d="M256.97,45.11c-.33,0-.59-.09-.77-.28-.18-.18-.27-.45-.27-.8v-10.28c0-.36.09-.63.27-.82.18-.19.41-.28.7-.28.27,0,.46.05.6.15s.29.26.47.49l6.62,8.59h-.45v-8.17c0-.33.09-.59.27-.78.18-.18.43-.28.77-.28s.59.09.76.28.26.44.26.78v10.37c0,.32-.08.58-.24.76s-.38.28-.66.28-.47-.05-.63-.16c-.16-.1-.33-.27-.51-.5l-6.6-8.59h.43v8.17c0,.35-.09.61-.26.8s-.43.28-.76.28Z"/>
    <path class="cls-2" d="M274.71,45.14c-1.35,0-2.49-.25-3.41-.76-.93-.51-1.63-1.23-2.12-2.16s-.73-2.04-.73-3.32c0-.97.14-1.84.42-2.61.28-.77.69-1.43,1.23-1.98.53-.55,1.19-.97,1.96-1.26s1.65-.44,2.63-.44c.64,0,1.29.08,1.94.23s1.26.42,1.84.79c.2.13.33.28.39.47s.07.37.03.56c-.05.19-.13.35-.26.49-.13.14-.29.22-.47.26-.19.03-.4-.01-.63-.14-.44-.25-.88-.44-1.33-.55-.45-.11-.95-.17-1.5-.17-.85,0-1.57.17-2.16.51-.59.34-1.03.83-1.32,1.48s-.44,1.43-.44,2.37c0,1.42.34,2.49,1.02,3.23.68.74,1.69,1.11,3.02,1.11.46,0,.93-.05,1.4-.14.47-.09.93-.22,1.38-.38l-.43.99v-3.68h-1.9c-.29,0-.51-.07-.66-.22-.16-.15-.23-.35-.23-.6s.08-.47.23-.6c.15-.14.38-.21.66-.21h2.85c.29,0,.51.08.67.23s.23.38.23.66v4.2c0,.25-.05.47-.15.64s-.26.3-.47.38c-.51.18-1.09.34-1.74.46-.66.12-1.3.18-1.94.18Z"/>
  </g>
  <g>
    <path class="cls-2" d="M74.55,60.91c-.44,0-.87-.03-1.28-.11-.41-.07-.8-.18-1.17-.32s-.69-.31-.98-.52c-.12-.08-.21-.19-.26-.31-.05-.12-.07-.24-.04-.36.02-.12.07-.22.15-.3.08-.08.18-.14.29-.15.11-.02.23.02.36.11.43.29.88.5,1.35.63s.99.2,1.57.2c.82,0,1.43-.15,1.82-.45.39-.3.58-.69.58-1.18,0-.4-.14-.72-.42-.95-.28-.23-.75-.41-1.42-.54l-1.49-.31c-.88-.19-1.54-.5-1.97-.93-.43-.43-.65-1.01-.65-1.73,0-.44.09-.84.27-1.2s.43-.67.76-.93.71-.46,1.16-.6.94-.21,1.48-.21c.58,0,1.13.08,1.64.24s.97.39,1.38.7c.11.08.19.19.22.3s.04.23.02.34c-.02.11-.08.21-.15.28-.08.07-.18.12-.29.13-.12,0-.25-.03-.39-.13-.37-.26-.76-.45-1.15-.57-.39-.12-.82-.18-1.29-.18s-.89.08-1.24.23c-.35.15-.62.36-.81.62-.19.27-.29.58-.29.93,0,.43.13.77.39,1.01.26.24.7.43,1.32.56l1.47.29c.94.2,1.63.5,2.08.91.45.41.68.95.68,1.64,0,.43-.09.82-.26,1.17s-.42.64-.74.89c-.32.25-.71.44-1.17.58-.46.13-.97.2-1.54.2Z"/>
    <path class="cls-2" d="M82.72,60.91c-.67,0-1.26-.15-1.75-.43-.5-.29-.88-.7-1.15-1.24-.27-.53-.41-1.16-.41-1.88,0-.54.08-1.03.23-1.47.15-.43.38-.81.67-1.12.29-.31.64-.55,1.05-.71.41-.16.86-.25,1.37-.25.67,0,1.26.15,1.75.43.5.29.88.7,1.15,1.23.27.53.41,1.15.41,1.87,0,.54-.08,1.03-.23,1.47-.15.44-.38.81-.67,1.12-.29.31-.64.55-1.05.71-.41.16-.86.25-1.37.25ZM82.72,59.9c.41,0,.77-.1,1.07-.29.3-.2.54-.48.7-.86.16-.37.25-.84.25-1.39,0-.82-.18-1.45-.55-1.88-.37-.43-.86-.65-1.47-.65-.4,0-.76.1-1.06.29s-.54.47-.71.85c-.17.37-.25.84-.25,1.39,0,.82.18,1.45.55,1.89.37.44.86.65,1.47.65Z"/>
    <path class="cls-2" d="M89.83,60.91c-.7,0-1.24-.21-1.6-.62-.36-.42-.55-1.02-.55-1.8v-7.05c0-.22.06-.38.17-.48s.27-.16.46-.16.36.05.48.16c.11.11.17.27.17.48v6.95c0,.49.1.85.3,1.09.2.24.49.36.86.36.08,0,.16,0,.22,0,.07,0,.13-.01.2-.02.1,0,.18.02.22.08.05.07.07.2.07.39,0,.18-.04.32-.12.41-.08.1-.21.16-.39.19-.08,0-.17.02-.25.02-.08,0-.17,0-.25,0Z"/>
    <path class="cls-2" d="M94.99,60.91c-.74,0-1.37-.14-1.9-.43-.53-.29-.94-.69-1.23-1.22-.29-.53-.44-1.15-.44-1.87s.14-1.33.43-1.87.68-.95,1.18-1.25c.5-.3,1.07-.45,1.72-.45.46,0,.87.08,1.24.23s.69.38.95.67c.26.29.46.64.6,1.06.14.42.2.89.2,1.41,0,.15-.04.27-.13.34-.09.08-.22.12-.39.12h-4.8v-.81h4.48l-.24.2c0-.49-.07-.9-.22-1.24-.14-.34-.36-.6-.63-.78-.28-.18-.62-.27-1.03-.27-.45,0-.83.11-1.15.32-.32.21-.56.51-.73.88-.17.38-.25.82-.25,1.31v.08c0,.84.2,1.48.6,1.91s.98.65,1.74.65c.3,0,.61-.04.92-.11.31-.07.62-.21.91-.41.14-.08.27-.12.39-.12.12,0,.21.04.29.11.07.07.12.15.14.25.02.1,0,.2-.04.32-.05.11-.14.21-.27.29-.31.22-.68.38-1.1.5-.43.12-.84.18-1.23.18Z"/>
    <path class="cls-2" d="M106.4,60.91c-.44,0-.87-.03-1.28-.11-.41-.07-.8-.18-1.17-.32s-.69-.31-.98-.52c-.12-.08-.21-.19-.26-.31-.05-.12-.07-.24-.04-.36.02-.12.07-.22.15-.3.08-.08.18-.14.29-.15.11-.02.23.02.36.11.43.29.88.5,1.35.63s.99.2,1.57.2c.82,0,1.43-.15,1.82-.45.39-.3.58-.69.58-1.18,0-.4-.14-.72-.42-.95-.28-.23-.75-.41-1.42-.54l-1.49-.31c-.88-.19-1.54-.5-1.97-.93-.43-.43-.65-1.01-.65-1.73,0-.44.09-.84.27-1.2s.43-.67.76-.93.71-.46,1.16-.6.94-.21,1.48-.21c.58,0,1.13.08,1.64.24s.97.39,1.38.7c.11.08.19.19.22.3s.04.23.02.34c-.02.11-.08.21-.15.28-.08.07-.18.12-.29.13-.12,0-.25-.03-.39-.13-.37-.26-.76-.45-1.15-.57-.39-.12-.82-.18-1.29-.18s-.89.08-1.24.23c-.35.15-.62.36-.81.62-.19.27-.29.58-.29.93,0,.43.13.77.39,1.01.26.24.7.43,1.32.56l1.47.29c.94.2,1.63.5,2.08.91.45.41.68.95.68,1.64,0,.43-.09.82-.26,1.17s-.42.64-.74.89c-.32.25-.71.44-1.17.58-.46.13-.97.2-1.54.2Z"/>
    <path class="cls-2" d="M114.57,60.91c-.67,0-1.26-.15-1.75-.43-.5-.29-.88-.7-1.15-1.24-.27-.53-.41-1.16-.41-1.88,0-.54.08-1.03.23-1.47.15-.43.38-.81.67-1.12.29-.31.64-.55,1.05-.71.41-.16.86-.25,1.37-.25.67,0,1.26.15,1.75.43.5.29.88.7,1.15,1.23.27.53.41,1.15.41,1.87,0,.54-.08,1.03-.23,1.47-.15.44-.38.81-.67,1.12-.29.31-.64.55-1.05.71-.41.16-.86.25-1.37.25ZM114.57,59.9c.41,0,.77-.1,1.07-.29.3-.2.54-.48.7-.86.16-.37.25-.84.25-1.39,0-.82-.18-1.45-.55-1.88-.37-.43-.86-.65-1.47-.65-.4,0-.76.1-1.06.29s-.54.47-.71.85c-.17.37-.25.84-.25,1.39,0,.82.18,1.45.55,1.89.37.44.86.65,1.47.65Z"/>
    <path class="cls-2" d="M121.68,60.91c-.7,0-1.24-.21-1.6-.62-.36-.42-.55-1.02-.55-1.8v-7.05c0-.22.06-.38.17-.48s.27-.16.46-.16.36.05.48.16c.11.11.17.27.17.48v6.95c0,.49.1.85.3,1.09.2.24.49.36.86.36.08,0,.16,0,.22,0,.07,0,.13-.01.2-.02.1,0,.18.02.22.08.05.07.07.2.07.39,0,.18-.04.32-.12.41-.08.1-.21.16-.39.19-.08,0-.17.02-.25.02-.08,0-.17,0-.25,0Z"/>
    <path class="cls-2" d="M126.2,60.91c-.55,0-1.01-.1-1.38-.31-.37-.21-.64-.51-.82-.91-.18-.4-.27-.91-.27-1.52v-3.68c0-.21.05-.38.16-.48.11-.11.26-.16.47-.16s.36.05.48.16.17.27.17.48v3.68c0,.58.12,1.01.35,1.28.23.28.6.41,1.11.41.56,0,1.02-.19,1.37-.56.35-.37.53-.87.53-1.49v-3.33c0-.21.05-.38.16-.48.11-.11.26-.16.47-.16s.36.05.48.16c.11.11.17.27.17.48v5.73c0,.44-.21.66-.62.66-.21,0-.36-.06-.47-.17-.11-.11-.16-.28-.16-.49v-1.22l.18.24c-.19.54-.49.96-.91,1.24-.42.29-.91.43-1.47.43Z"/>
    <path class="cls-2" d="M134.52,60.91c-.55,0-1.01-.1-1.38-.29-.37-.2-.65-.48-.83-.86-.18-.37-.27-.83-.27-1.38v-3.45h-.9c-.17,0-.3-.04-.39-.13-.09-.09-.14-.21-.14-.36,0-.16.05-.28.14-.37s.22-.13.39-.13h.9v-1.53c0-.21.06-.38.17-.48.11-.11.27-.16.48-.16s.36.05.47.16.16.27.16.48v1.53h1.7c.18,0,.31.04.41.13s.14.21.14.37c0,.15-.05.27-.14.36-.09.09-.23.13-.41.13h-1.7v3.34c0,.51.11.9.32,1.16.22.26.57.39,1.07.39.18,0,.33-.02.45-.05.12-.03.23-.05.32-.05.08,0,.16.02.22.08.06.07.09.19.09.37,0,.13-.02.25-.06.36s-.12.18-.25.22c-.11.04-.26.07-.45.11-.19.03-.36.05-.51.05Z"/>
    <path class="cls-2" d="M137.46,52.36c-.25,0-.45-.07-.6-.2-.15-.13-.22-.32-.22-.54,0-.24.07-.43.22-.55.14-.13.34-.19.6-.19.27,0,.47.06.61.19.14.13.2.31.2.55,0,.22-.07.41-.2.54-.14.14-.34.2-.61.2ZM137.46,60.85c-.2,0-.35-.06-.46-.18-.11-.12-.17-.29-.17-.51v-5.6c0-.23.06-.4.17-.51s.27-.18.46-.18.36.06.48.18c.11.12.17.29.17.51v5.6c0,.22-.05.38-.16.51-.11.12-.27.18-.48.18Z"/>
    <path class="cls-2" d="M143.06,60.91c-.67,0-1.26-.15-1.75-.43-.5-.29-.88-.7-1.15-1.24-.27-.53-.41-1.16-.41-1.88,0-.54.08-1.03.23-1.47.15-.43.38-.81.67-1.12.29-.31.64-.55,1.05-.71.41-.16.86-.25,1.37-.25.67,0,1.26.15,1.75.43.5.29.88.7,1.15,1.23.27.53.41,1.15.41,1.87,0,.54-.08,1.03-.23,1.47-.15.44-.38.81-.67,1.12-.29.31-.64.55-1.05.71-.41.16-.86.25-1.37.25ZM143.06,59.9c.41,0,.77-.1,1.07-.29.3-.2.54-.48.7-.86.16-.37.25-.84.25-1.39,0-.82-.18-1.45-.55-1.88-.37-.43-.86-.65-1.47-.65-.4,0-.76.1-1.06.29s-.54.47-.71.85c-.17.37-.25.84-.25,1.39,0,.82.18,1.45.55,1.89.37.44.86.65,1.47.65Z"/>
    <path class="cls-2" d="M148.64,60.88c-.2,0-.35-.06-.46-.17-.11-.11-.17-.28-.17-.49v-5.73c0-.21.06-.38.17-.48s.27-.16.46-.16.35.05.46.16c.11.11.16.27.16.48v1.15l-.15-.21c.2-.53.52-.94.96-1.21.44-.27.95-.41,1.52-.41s1.01.1,1.36.29c.36.2.62.5.8.9.18.4.27.91.27,1.53v3.68c0,.21-.05.38-.16.49-.11.11-.26.17-.47.17s-.36-.06-.48-.17c-.11-.11-.17-.28-.17-.49v-3.61c0-.61-.12-1.05-.35-1.33-.23-.28-.61-.42-1.12-.42-.6,0-1.08.19-1.44.55-.36.37-.54.87-.54,1.5v3.31c0,.44-.22.66-.65.66Z"/>
    <path class="cls-2" d="M160.74,60.88c-.21,0-.36-.06-.48-.17-.11-.11-.17-.28-.17-.49v-5.29h-.84c-.17,0-.3-.04-.39-.13-.09-.09-.14-.21-.14-.36,0-.16.05-.28.14-.37.09-.08.22-.13.39-.13h1.19l-.35.34v-.52c0-.91.22-1.6.67-2.07.44-.47,1.1-.75,1.96-.82l.44-.03c.14-.02.25,0,.34.06s.14.14.17.23c.03.09.03.19,0,.29-.02.1-.07.19-.13.26-.07.07-.15.12-.25.13h-.31c-.56.06-.97.23-1.22.51-.25.29-.38.71-.38,1.27v.56l-.18-.21h1.61c.18,0,.31.04.41.13.09.08.14.21.14.37,0,.15-.05.27-.14.36-.09.09-.23.13-.41.13h-1.43v5.29c0,.44-.21.66-.63.66Z"/>
    <path class="cls-2" d="M167.19,60.91c-.67,0-1.26-.15-1.75-.43-.5-.29-.88-.7-1.15-1.24-.27-.53-.41-1.16-.41-1.88,0-.54.08-1.03.23-1.47.15-.43.38-.81.67-1.12.29-.31.64-.55,1.05-.71.41-.16.86-.25,1.37-.25.67,0,1.26.15,1.75.43.5.29.88.7,1.15,1.23.27.53.41,1.15.41,1.87,0,.54-.08,1.03-.23,1.47-.15.44-.38.81-.67,1.12-.29.31-.64.55-1.05.71-.41.16-.86.25-1.37.25ZM167.19,59.9c.41,0,.77-.1,1.07-.29.3-.2.54-.48.7-.86.16-.37.25-.84.25-1.39,0-.82-.18-1.45-.55-1.88-.37-.43-.86-.65-1.47-.65-.4,0-.76.1-1.06.29s-.54.47-.71.85c-.17.37-.25.84-.25,1.39,0,.82.18,1.45.55,1.89.37.44.86.65,1.47.65Z"/>
    <path class="cls-2" d="M172.8,60.88c-.22,0-.38-.06-.49-.17-.11-.11-.17-.28-.17-.49v-5.73c0-.21.06-.38.17-.48s.27-.16.46-.16.35.05.46.16c.11.11.16.27.16.48v1.08h-.14c.15-.56.43-.99.84-1.28.41-.29.93-.45,1.56-.49.15,0,.27.03.36.11.09.08.14.21.15.4,0,.18-.03.32-.13.43s-.24.17-.43.19h-.25c-.62.08-1.09.28-1.42.62-.33.34-.5.8-.5,1.39v3.29c0,.21-.05.38-.16.49-.11.11-.26.17-.47.17Z"/>
    <path class="cls-2" d="M183.11,60.91c-.47,0-.89-.09-1.27-.28-.38-.19-.67-.44-.88-.76-.21-.32-.32-.67-.32-1.07,0-.51.13-.9.38-1.19.25-.29.68-.5,1.28-.62.6-.13,1.4-.19,2.41-.19h.66v.81h-.63c-.72,0-1.29.03-1.71.1s-.71.18-.88.34c-.17.16-.25.39-.25.68,0,.36.13.66.39.9s.61.35,1.06.35c.36,0,.67-.09.94-.26.27-.17.49-.41.65-.7.16-.29.24-.63.24-1.02v-1.61c0-.55-.11-.95-.34-1.2-.22-.25-.6-.37-1.14-.37-.31,0-.63.04-.95.13-.33.08-.67.22-1.03.39-.14.07-.26.09-.36.06-.1-.02-.18-.08-.25-.17-.06-.09-.09-.19-.1-.29s.02-.21.07-.32.14-.18.27-.22c.41-.21.82-.35,1.23-.44.41-.09.79-.13,1.14-.13.61,0,1.11.1,1.5.29.39.19.69.49.88.88.2.4.29.91.29,1.52v3.71c0,.21-.05.38-.15.49-.1.11-.25.17-.45.17s-.33-.06-.44-.17c-.11-.11-.16-.28-.16-.49v-1h.13c-.07.35-.22.65-.42.9-.21.25-.46.45-.77.58-.3.13-.65.2-1.03.2Z"/>
    <path class="cls-2" d="M190.56,60.91c-.7,0-1.24-.21-1.6-.62-.36-.42-.55-1.02-.55-1.8v-7.05c0-.22.06-.38.17-.48s.27-.16.46-.16.36.05.48.16c.11.11.17.27.17.48v6.95c0,.49.1.85.3,1.09.2.24.49.36.86.36.08,0,.16,0,.22,0,.07,0,.13-.01.2-.02.1,0,.18.02.22.08.05.07.07.2.07.39,0,.18-.04.32-.12.41-.08.1-.21.16-.39.19-.08,0-.17.02-.25.02-.08,0-.17,0-.25,0Z"/>
    <path class="cls-2" d="M194.78,60.91c-.7,0-1.24-.21-1.6-.62-.36-.42-.55-1.02-.55-1.8v-7.05c0-.22.06-.38.17-.48s.27-.16.46-.16.36.05.48.16c.11.11.17.27.17.48v6.95c0,.49.1.85.3,1.09.2.24.49.36.86.36.08,0,.16,0,.22,0,.07,0,.13-.01.2-.02.1,0,.18.02.22.08.05.07.07.2.07.39,0,.18-.04.32-.12.41-.08.1-.21.16-.39.19-.08,0-.17.02-.25.02-.08,0-.17,0-.25,0Z"/>
    <path class="cls-2" d="M202.1,63.41c-.15,0-.27-.04-.37-.12-.1-.08-.15-.19-.17-.32s.01-.28.08-.43l.96-2.16v.53l-2.65-6.18c-.07-.16-.09-.3-.07-.44.02-.13.08-.24.19-.32.11-.08.25-.13.44-.13.16,0,.29.04.38.11.09.08.18.21.27.39l2.2,5.43h-.39l2.25-5.43c.07-.19.16-.32.27-.39.1-.07.24-.11.42-.11.16,0,.28.04.37.13.09.08.14.19.16.32.02.13,0,.27-.08.42l-3.54,8.18c-.09.2-.19.33-.29.4-.1.07-.24.11-.41.11Z"/>
    <path class="cls-2" d="M210.58,60.91c-.67,0-1.26-.15-1.76-.43-.5-.29-.88-.7-1.15-1.24-.27-.53-.41-1.16-.41-1.88,0-.54.08-1.03.23-1.47.15-.43.38-.81.67-1.12.29-.31.64-.55,1.05-.71.41-.16.86-.25,1.37-.25.67,0,1.26.15,1.75.43.5.29.88.7,1.15,1.23s.41,1.15.41,1.87c0,.54-.08,1.03-.23,1.47-.15.44-.38.81-.67,1.12-.29.31-.64.55-1.05.71-.41.16-.86.25-1.37.25ZM210.58,59.9c.41,0,.77-.1,1.07-.29.3-.2.54-.48.7-.86.16-.37.25-.84.25-1.39,0-.82-.18-1.45-.55-1.88-.36-.43-.86-.65-1.47-.65-.4,0-.76.1-1.06.29s-.54.47-.71.85c-.17.37-.25.84-.25,1.39,0,.82.18,1.45.55,1.89.37.44.86.65,1.47.65Z"/>
    <path class="cls-2" d="M217.97,60.91c-.55,0-1.01-.1-1.38-.31-.37-.21-.64-.51-.82-.91-.18-.4-.27-.91-.27-1.52v-3.68c0-.21.05-.38.16-.48s.26-.16.47-.16.37.05.48.16c.11.11.17.27.17.48v3.68c0,.58.12,1.01.35,1.28s.6.41,1.11.41c.56,0,1.02-.19,1.37-.56.35-.37.53-.87.53-1.49v-3.33c0-.21.05-.38.16-.48s.26-.16.47-.16.37.05.48.16c.11.11.17.27.17.48v5.73c0,.44-.21.66-.62.66-.21,0-.36-.06-.47-.17-.11-.11-.16-.28-.16-.49v-1.22l.18.24c-.19.54-.49.96-.91,1.24-.42.29-.91.43-1.47.43Z"/>
    <path class="cls-2" d="M224.12,60.88c-.22,0-.38-.06-.49-.17-.11-.11-.17-.28-.17-.49v-5.73c0-.21.06-.38.17-.48s.27-.16.46-.16.35.05.46.16.16.27.16.48v1.08h-.14c.15-.56.43-.99.84-1.28.41-.29.93-.45,1.56-.49.15,0,.27.03.36.11.09.08.15.21.15.4,0,.18-.03.32-.13.43s-.24.17-.43.19h-.25c-.62.08-1.09.28-1.42.62-.33.34-.5.8-.5,1.39v3.29c0,.21-.05.38-.16.49-.11.11-.26.17-.47.17Z"/>
    <path class="cls-2" d="M232.88,63.41c-.2,0-.35-.06-.46-.17-.11-.11-.17-.27-.17-.48v-8.27c0-.21.06-.38.17-.48s.27-.16.46-.16.36.05.47.16c.11.11.16.27.16.48v1.28l-.15-.25c.15-.51.44-.93.88-1.24s.97-.46,1.59-.46,1.14.14,1.59.43c.45.29.8.69,1.05,1.22.25.53.38,1.16.38,1.89s-.12,1.35-.37,1.89c-.25.54-.6.95-1.05,1.24-.45.29-.98.43-1.59.43s-1.13-.15-1.57-.46c-.44-.31-.73-.72-.88-1.22h.15v3.54c0,.21-.06.36-.17.48s-.27.17-.48.17ZM235.53,59.9c.4,0,.76-.1,1.06-.29.3-.2.54-.48.71-.86.17-.37.25-.84.25-1.39,0-.82-.18-1.45-.55-1.88-.36-.43-.86-.65-1.47-.65-.41,0-.77.1-1.07.29-.3.19-.54.47-.7.85-.16.37-.25.84-.25,1.39,0,.82.18,1.45.55,1.89.36.44.86.65,1.47.65Z"/>
    <path class="cls-2" d="M241.15,60.88c-.22,0-.38-.06-.49-.17-.11-.11-.17-.28-.17-.49v-5.73c0-.21.06-.38.17-.48s.27-.16.46-.16.35.05.46.16.16.27.16.48v1.08h-.14c.15-.56.43-.99.84-1.28.41-.29.93-.45,1.56-.49.15,0,.27.03.36.11.09.08.15.21.15.4,0,.18-.03.32-.13.43s-.24.17-.43.19h-.25c-.62.08-1.09.28-1.42.62-.33.34-.5.8-.5,1.39v3.29c0,.21-.05.38-.16.49-.11.11-.26.17-.47.17Z"/>
    <path class="cls-2" d="M247.72,60.91c-.47,0-.89-.09-1.27-.28-.38-.19-.67-.44-.88-.76-.21-.32-.32-.67-.32-1.07,0-.51.13-.9.38-1.19.25-.29.68-.5,1.28-.62s1.4-.19,2.41-.19h.66v.81h-.63c-.72,0-1.29.03-1.71.1s-.71.18-.88.34c-.17.16-.25.39-.25.68,0,.36.13.66.39.9.26.23.61.35,1.06.35.36,0,.67-.09.94-.26.27-.17.49-.41.65-.7s.24-.63.24-1.02v-1.61c0-.55-.11-.95-.34-1.2-.22-.25-.6-.37-1.14-.37-.31,0-.63.04-.95.13s-.67.22-1.02.39c-.14.07-.26.09-.37.06s-.19-.08-.25-.17c-.06-.09-.09-.19-.1-.29,0-.11.02-.21.07-.32s.14-.18.27-.22c.41-.21.82-.35,1.23-.44.41-.09.79-.13,1.14-.13.61,0,1.11.1,1.5.29.39.19.69.49.88.88.2.4.29.91.29,1.52v3.71c0,.21-.05.38-.15.49-.1.11-.25.17-.45.17s-.33-.06-.44-.17c-.11-.11-.16-.28-.16-.49v-1h.13c-.08.35-.22.65-.42.9-.21.25-.46.45-.77.58-.3.13-.65.2-1.03.2Z"/>
    <path class="cls-2" d="M255.99,60.91c-.69,0-1.29-.15-1.8-.44-.51-.29-.89-.71-1.17-1.25s-.41-1.17-.41-1.9c0-.54.08-1.03.23-1.46.15-.43.38-.8.67-1.1.29-.3.64-.54,1.06-.7s.89-.24,1.41-.24c.33,0,.67.05,1.04.15.37.1.7.27,1.01.51.1.07.17.16.2.26.03.1.03.2,0,.3-.02.1-.07.19-.14.26-.07.07-.16.11-.27.12s-.22-.02-.34-.1c-.22-.17-.46-.29-.71-.36-.25-.07-.48-.11-.71-.11-.35,0-.65.06-.92.17-.27.11-.49.27-.67.48s-.32.47-.41.77c-.09.3-.14.66-.14,1.06,0,.8.19,1.42.56,1.87.37.45.9.68,1.59.68.22,0,.46-.03.7-.11s.48-.19.72-.36c.12-.07.23-.11.34-.09.1.01.19.06.26.13.07.07.11.15.13.25.02.1.01.2-.02.3s-.1.19-.2.25c-.3.22-.63.39-.98.49-.36.1-.7.15-1.02.15Z"/>
    <path class="cls-2" d="M262.4,60.91c-.55,0-1.01-.1-1.38-.29s-.65-.48-.83-.86c-.18-.37-.27-.83-.27-1.38v-3.45h-.9c-.17,0-.3-.04-.39-.13-.09-.09-.14-.21-.14-.36,0-.16.05-.28.14-.37s.22-.13.39-.13h.9v-1.53c0-.21.06-.38.17-.48.11-.11.27-.16.48-.16s.36.05.47.16.16.27.16.48v1.53h1.7c.18,0,.31.04.41.13s.14.21.14.37c0,.15-.05.27-.14.36-.09.09-.23.13-.41.13h-1.7v3.34c0,.51.11.9.32,1.16.21.26.57.39,1.07.39.18,0,.33-.02.45-.05.12-.03.23-.05.32-.05.08,0,.16.02.22.08s.09.19.09.37c0,.13-.02.25-.06.36s-.12.18-.25.22c-.11.04-.26.07-.45.11-.19.03-.36.05-.51.05Z"/>
    <path class="cls-2" d="M265.34,52.36c-.25,0-.45-.07-.6-.2-.14-.13-.22-.32-.22-.54,0-.24.07-.43.22-.55.15-.13.34-.19.6-.19.27,0,.47.06.61.19s.2.31.2.55c0,.22-.07.41-.2.54-.14.14-.34.2-.61.2ZM265.34,60.85c-.2,0-.35-.06-.46-.18-.11-.12-.17-.29-.17-.51v-5.6c0-.23.06-.4.17-.51s.27-.18.46-.18.37.06.48.18c.11.12.17.29.17.51v5.6c0,.22-.05.38-.16.51-.11.12-.27.18-.48.18Z"/>
    <path class="cls-2" d="M270.99,60.91c-.69,0-1.29-.15-1.8-.44-.51-.29-.89-.71-1.17-1.25s-.41-1.17-.41-1.9c0-.54.08-1.03.23-1.46.15-.43.38-.8.67-1.1.29-.3.64-.54,1.06-.7s.89-.24,1.41-.24c.33,0,.67.05,1.04.15.37.1.7.27,1.01.51.1.07.17.16.2.26.03.1.03.2,0,.3-.02.1-.07.19-.14.26-.07.07-.16.11-.27.12s-.22-.02-.34-.1c-.22-.17-.46-.29-.71-.36-.25-.07-.48-.11-.71-.11-.35,0-.65.06-.92.17-.27.11-.49.27-.67.48s-.32.47-.41.77c-.09.3-.14.66-.14,1.06,0,.8.19,1.42.56,1.87.37.45.9.68,1.59.68.22,0,.46-.03.7-.11s.48-.19.72-.36c.12-.07.23-.11.34-.09.1.01.19.06.26.13.07.07.11.15.13.25.02.1.01.2-.02.3s-.1.19-.2.25c-.3.22-.63.39-.98.49-.36.1-.7.15-1.02.15Z"/>
    <path class="cls-2" d="M277.58,60.91c-.74,0-1.37-.14-1.9-.43-.53-.29-.94-.69-1.23-1.22-.29-.53-.43-1.15-.43-1.87s.14-1.33.43-1.87.68-.95,1.18-1.25c.5-.3,1.07-.45,1.72-.45.46,0,.87.08,1.24.23.37.15.69.38.95.67.26.29.46.64.6,1.06.14.42.2.89.2,1.41,0,.15-.04.27-.13.34-.09.08-.22.12-.39.12h-4.8v-.81h4.48l-.24.2c0-.49-.07-.9-.22-1.24s-.36-.6-.63-.78-.62-.27-1.03-.27c-.45,0-.83.11-1.15.32s-.56.51-.73.88-.25.82-.25,1.31v.08c0,.84.2,1.48.6,1.91.4.43.98.65,1.74.65.3,0,.61-.04.92-.11.31-.07.61-.21.9-.41.14-.08.27-.12.39-.12.12,0,.21.04.29.11.07.07.12.15.14.25.02.1,0,.2-.04.32-.05.11-.14.21-.27.29-.31.22-.68.38-1.1.5-.43.12-.84.18-1.23.18Z"/>
  </g>
</svg>